<svg width="85" height="42" viewBox="0 0 85 42" fill="none" xmlns="http://www.w3.org/2000/svg">
<g clip-path="url(#clip0_214_2020)">
<path d="M0 17.798H3.92929L4.07576 20.0051C5.83839 18.0505 7.74243 16.8788 10.303 17.1061C12.8636 17.3333 14.7323 18.5354 16.2172 20.7475C17.3045 19.1192 18.9353 17.9306 20.8182 17.394C26.0909 15.9344 30.4646 19.0556 30.6869 24.6869C30.8939 29.9798 30.803 35.2929 30.8333 40.5859C30.8195 40.8103 30.7874 41.0333 30.7374 41.2525H26.697V39.8434C26.697 35.4697 26.697 31.0909 26.6717 26.7121C26.6394 25.7914 26.5159 24.8762 26.303 23.9798C25.9444 22.2929 24.9495 21.202 23.1818 20.9495C21.1313 20.6768 19.2677 21.3586 18.6061 23.0758C17.9416 24.788 17.5546 26.5952 17.4596 28.4293C17.2879 32.2071 17.404 36.0051 17.404 39.7879V41.2222H13.3333C13.3333 40.7525 13.3333 40.2677 13.3333 39.7879C13.2828 35.202 13.2424 30.6162 13.1717 26.0303C13.148 25.4004 13.0531 24.7752 12.8889 24.1667C12.4646 22.5101 11.6111 21.2222 9.76263 20.9495C8.84255 20.7885 7.89509 20.9256 7.05837 21.3407C6.22165 21.7559 5.53941 22.4275 5.11112 23.2576C4.02526 25.2778 4.06566 27.4848 4.02021 29.6616C3.9495 33.0253 4.02021 36.3939 4.02021 39.7626V41.2121H0.0252618L0 17.798Z" fill="black"/>
<path d="M80.192 20.8232V17.8333C80.5859 17.7828 80.8687 17.7172 81.1516 17.7121C82.1617 17.7121 83.1718 17.7121 84.2425 17.7121V41.2222H80.1516V38.8232C78.4445 39.7626 76.8738 41 75.1011 41.5303C68.9344 43.3636 62.798 39.7424 61.2576 33.3687C60.1314 28.702 60.6415 24.2273 64.0607 20.5101C65.0239 19.4499 66.1919 18.5958 67.4942 17.9993C68.7965 17.4029 70.2062 17.0764 71.6381 17.0395C73.0701 17.0027 74.4946 17.2564 75.8259 17.7851C77.1571 18.3139 78.3675 19.1069 79.3839 20.1162C79.5556 20.2828 79.7526 20.4495 80.192 20.8232ZM80.293 29.5303C80.293 29.0657 80.3182 28.601 80.293 28.1414C80.1706 26.5601 79.5753 25.0522 78.5845 23.8137C77.5938 22.5753 76.2533 21.6635 74.7374 21.197C71.6263 20.3131 68.6314 21.3889 66.6263 24.1111C64.4243 27.1061 64.4799 31.8081 66.7576 35.0101C67.3058 35.8092 68.0081 36.4908 68.8234 37.0147C69.6387 37.5386 70.5504 37.8942 71.5051 38.0608C72.4597 38.2274 73.4381 38.2015 74.3826 37.9846C75.3271 37.7677 76.2187 37.3643 77.0051 36.798C79.4243 35.0202 80.3334 32.4646 80.293 29.5404V29.5303Z" fill="black"/>
<path d="M51.3586 0H55.3586V41.2525H51.3586V0Z" fill="black"/>
<path d="M43.0707 17.8687V41.2273H39.1666V17.8687H43.0707Z" fill="black"/>
<path d="M41.0657 11.803C40.6769 11.8147 40.2901 11.7446 39.9302 11.5972C39.5702 11.4499 39.2453 11.2286 38.9763 10.9477C38.7073 10.6668 38.5003 10.3326 38.3686 9.96663C38.237 9.60066 38.1837 9.21113 38.2122 8.82325C38.2423 8.06362 38.5671 7.34558 39.1177 6.82138C39.6683 6.29717 40.4015 6.00801 41.1617 6.01518C41.9233 6.0282 42.65 6.33689 43.1882 6.876C43.7264 7.41512 44.0338 8.1424 44.0455 8.90406C44.0492 9.29266 43.974 9.67797 43.8245 10.0367C43.675 10.3954 43.4543 10.7201 43.1758 10.9911C42.8973 11.262 42.5666 11.4737 42.204 11.6133C41.8413 11.7529 41.454 11.8174 41.0657 11.803Z" fill="black"/>
</g>
<defs>
<clipPath id="clip0_214_2020">
<rect width="84.2424" height="42" fill="white"/>
</clipPath>
</defs>
</svg>
